<svg xmlns="http://www.w3.org/2000/svg" viewBox="0 0 96 96" role="img" aria-label="Sovertick mark">
  <defs>
    <linearGradient id="st-shell-bg" x1="12" y1="10" x2="84" y2="90" gradientUnits="userSpaceOnUse">
      <stop offset="0" stop-color="#161C2E" />
      <stop offset="1" stop-color="#090C16" />
    </linearGradient>
    <linearGradient id="st-glass-sheen" x1="14" y1="10" x2="70" y2="54" gradientUnits="userSpaceOnUse">
      <stop offset="0" stop-color="#FFFFFF" stop-opacity="0.26" />
      <stop offset="1" stop-color="#FFFFFF" stop-opacity="0" />
    </linearGradient>
    <linearGradient id="st-mark-gradient" x1="28" y1="26" x2="66" y2="68" gradientUnits="userSpaceOnUse">
      <stop offset="0" stop-color="#C29BFF" />
      <stop offset="0.55" stop-color="#B783FA" />
      <stop offset="1" stop-color="#FF8784" />
    </linearGradient>
    <linearGradient id="st-check-metal" x1="38" y1="46" x2="62" y2="64" gradientUnits="userSpaceOnUse">
      <stop offset="0" stop-color="#FFE8A6" />
      <stop offset="0.45" stop-color="#FFD56F" />
      <stop offset="1" stop-color="#E3A43A" />
    </linearGradient>
  </defs>

  <rect x="4" y="4" width="88" height="88" rx="24" fill="url(#st-shell-bg)" />
  <rect x="4.5" y="4.5" width="87" height="87" rx="23.5" fill="none" stroke="rgba(245,245,247,0.18)" />
  <rect x="10" y="10" width="76" height="76" rx="20" fill="url(#st-glass-sheen)" />

  <path d="M65 29H44.2C38.5 29 35 31.9 35 36.2C35 40.2 37.8 42.4 43.3 44L51.2 46.2C56.5 47.7 60 50.6 60 56C60 62.6 55 67 47.3 67H31" fill="none" stroke="url(#st-mark-gradient)" stroke-width="8" stroke-linecap="round" stroke-linejoin="round" />
  <path d="M40.3 51.9L46.8 58.4L58.4 46.8" fill="none" stroke="url(#st-check-metal)" stroke-width="4.8" stroke-linecap="round" stroke-linejoin="round" />
  <path d="M41 52.4L46.7 58L57.5 47.3" fill="none" stroke="rgba(255,255,255,0.38)" stroke-width="1.1" stroke-linecap="round" stroke-linejoin="round" />
</svg>
