<svg xmlns="http://www.w3.org/2000/svg" viewBox="0 0 96 96" role="img" aria-label="Sovertick mark">
  <defs>
    <linearGradient id="sovertick-mark-only-gradient" x1="12" y1="12" x2="84" y2="84" gradientUnits="userSpaceOnUse">
      <stop offset="0" stop-color="#B06EFF" />
      <stop offset="1" stop-color="#FF6B6B" />
    </linearGradient>
  </defs>
  <rect x="4" y="4" width="88" height="88" rx="24" fill="#0B0F1A" />
  <rect x="4" y="4" width="88" height="88" rx="24" fill="none" stroke="rgba(245,245,247,0.12)" />
  <path d="M26 35c0-8 6-13 17-13 8 0 14 3 18 8l-7 6c-2-3-5-5-11-5-5 0-8 2-8 5 0 3 2 4 7 6l10 3c9 3 13 7 13 14 0 10-8 16-20 16-10 0-17-4-22-11l8-6c3 5 8 8 14 8s10-2 10-6c0-3-2-4-7-6l-10-3c-9-3-12-8-12-14Z" fill="url(#sovertick-mark-only-gradient)" />
  <path d="M30 53l11 11 24-24" fill="none" stroke="#FFD93D" stroke-width="5" stroke-linecap="round" stroke-linejoin="round" />
</svg>
