<svg xmlns="http://www.w3.org/2000/svg" viewBox="0 0 1600 1000" role="img" aria-label="Sovertick AI operations dashboard prototype">
  <defs>
    <linearGradient id="bgA" x1="0" y1="0" x2="1" y2="1">
      <stop offset="0%" stop-color="#070B16"/>
      <stop offset="100%" stop-color="#10182C"/>
    </linearGradient>
    <linearGradient id="brandA" x1="0" y1="0" x2="1" y2="1">
      <stop offset="0%" stop-color="#B06EFF"/>
      <stop offset="100%" stop-color="#FF6B6B"/>
    </linearGradient>
  </defs>
  <rect width="1600" height="1000" fill="url(#bgA)"/>
  <circle cx="1320" cy="170" r="240" fill="#B06EFF20"/>
  <circle cx="260" cy="840" r="220" fill="#FF6B6B1B"/>

  <rect x="130" y="100" width="1340" height="800" rx="30" fill="#0C1222" stroke="#FFFFFF1A" stroke-width="2"/>
  <rect x="130" y="100" width="1340" height="60" rx="30" fill="#11192D"/>
  <rect x="176" y="122" width="250" height="16" rx="8" fill="#FFFFFF18"/>
  <rect x="1254" y="116" width="180" height="28" rx="14" fill="url(#brandA)" opacity="0.24"/>

  <rect x="170" y="190" width="390" height="300" rx="20" fill="#121B31"/>
  <rect x="202" y="224" width="170" height="10" rx="5" fill="#FFFFFF28"/>
  <rect x="202" y="250" width="120" height="8" rx="4" fill="#FFFFFF1A"/>
  <circle cx="364" cy="346" r="94" fill="none" stroke="#FFFFFF1E" stroke-width="24"/>
  <path d="M364 252 A94 94 0 0 1 442 404" fill="none" stroke="url(#brandA)" stroke-width="24"/>
  <circle cx="364" cy="346" r="10" fill="#FFFFFF80"/>

  <rect x="590" y="190" width="430" height="300" rx="20" fill="#121B31"/>
  <rect x="622" y="224" width="190" height="10" rx="5" fill="#FFFFFF28"/>
  <rect x="622" y="250" width="140" height="8" rx="4" fill="#FFFFFF1A"/>
  <rect x="622" y="286" width="366" height="174" rx="14" fill="#FFFFFF0D"/>
  <polyline points="648,432 704,376 758,404 840,330 900,346 958,300" fill="none" stroke="url(#brandA)" stroke-width="6"/>
  <circle cx="704" cy="376" r="5" fill="#FFFFFF88"/>
  <circle cx="840" cy="330" r="5" fill="#FFFFFF88"/>
  <circle cx="958" cy="300" r="5" fill="#FFFFFF88"/>

  <rect x="1050" y="190" width="380" height="300" rx="20" fill="#121B31"/>
  <rect x="1082" y="224" width="200" height="10" rx="5" fill="#FFFFFF28"/>
  <rect x="1082" y="250" width="138" height="8" rx="4" fill="#FFFFFF1A"/>
  <rect x="1082" y="286" width="316" height="60" rx="12" fill="#FFFFFF10"/>
  <rect x="1082" y="358" width="316" height="58" rx="12" fill="#FFFFFF0C"/>
  <rect x="1082" y="428" width="316" height="30" rx="15" fill="url(#brandA)" opacity="0.24"/>

  <rect x="170" y="520" width="760" height="340" rx="20" fill="#121B31"/>
  <rect x="202" y="554" width="240" height="10" rx="5" fill="#FFFFFF28"/>
  <rect x="202" y="580" width="170" height="8" rx="4" fill="#FFFFFF1A"/>
  <rect x="202" y="614" width="696" height="214" rx="14" fill="#FFFFFF0C"/>
  <circle cx="302" cy="706" r="8" fill="#B06EFF"/>
  <circle cx="384" cy="744" r="8" fill="#FF6B6B"/>
  <circle cx="470" cy="694" r="8" fill="#B06EFF"/>
  <circle cx="560" cy="752" r="8" fill="#FF6B6B"/>
  <circle cx="654" cy="704" r="8" fill="#B06EFF"/>
  <line x1="302" y1="706" x2="384" y2="744" stroke="#FFFFFF2B"/>
  <line x1="384" y1="744" x2="470" y2="694" stroke="#FFFFFF2B"/>
  <line x1="470" y1="694" x2="560" y2="752" stroke="#FFFFFF2B"/>
  <line x1="560" y1="752" x2="654" y2="704" stroke="#FFFFFF2B"/>
  <line x1="654" y1="704" x2="744" y2="756" stroke="#FFFFFF2B"/>

  <rect x="960" y="520" width="470" height="340" rx="20" fill="#121B31"/>
  <rect x="992" y="554" width="200" height="10" rx="5" fill="#FFFFFF28"/>
  <rect x="992" y="580" width="150" height="8" rx="4" fill="#FFFFFF1A"/>
  <rect x="992" y="614" width="406" height="146" rx="14" fill="#FFFFFF0D"/>
  <rect x="1018" y="640" width="300" height="18" rx="9" fill="#FFFFFF18"/>
  <rect x="1018" y="672" width="238" height="14" rx="7" fill="#FFFFFF12"/>
  <rect x="1018" y="700" width="280" height="14" rx="7" fill="#FFFFFF12"/>
  <rect x="1216" y="778" width="182" height="50" rx="25" fill="url(#brandA)"/>
</svg>
