<svg xmlns="http://www.w3.org/2000/svg" viewBox="0 0 1600 1000" role="img" aria-label="Sovertick web prototype in desktop frame">
  <defs>
    <linearGradient id="bgW" x1="0" y1="0" x2="1" y2="1">
      <stop offset="0%" stop-color="#080C18"/>
      <stop offset="100%" stop-color="#131A2D"/>
    </linearGradient>
    <linearGradient id="brandW" x1="0" y1="0" x2="1" y2="1">
      <stop offset="0%" stop-color="#B06EFF"/>
      <stop offset="100%" stop-color="#FF6B6B"/>
    </linearGradient>
  </defs>
  <rect width="1600" height="1000" fill="url(#bgW)"/>
  <circle cx="1280" cy="140" r="230" fill="#B06EFF24"/>
  <circle cx="220" cy="830" r="210" fill="#FF6B6B1C"/>

  <rect x="170" y="120" width="1260" height="760" rx="30" fill="#0B1020" stroke="#FFFFFF18" stroke-width="2"/>
  <rect x="170" y="120" width="1260" height="58" rx="30" fill="#11182A"/>
  <circle cx="212" cy="149" r="6" fill="#FFFFFF5A"/>
  <circle cx="232" cy="149" r="6" fill="#FFFFFF45"/>
  <circle cx="252" cy="149" r="6" fill="#FFFFFF38"/>
  <rect x="290" y="136" width="360" height="26" rx="13" fill="#FFFFFF14"/>

  <rect x="210" y="208" width="1180" height="240" rx="20" fill="#131D35"/>
  <rect x="248" y="246" width="400" height="14" rx="7" fill="#FFFFFF33"/>
  <rect x="248" y="274" width="310" height="10" rx="5" fill="#FFFFFF20"/>
  <rect x="248" y="320" width="170" height="48" rx="24" fill="url(#brandW)"/>
  <rect x="930" y="238" width="420" height="180" rx="16" fill="#FFFFFF10"/>
  <polyline points="960,386 1018,336 1092,352 1168,288 1244,318 1320,260" fill="none" stroke="url(#brandW)" stroke-width="7"/>

  <rect x="210" y="478" width="560" height="360" rx="20" fill="#121A2F"/>
  <rect x="246" y="514" width="230" height="10" rx="5" fill="#FFFFFF2A"/>
  <rect x="246" y="542" width="180" height="8" rx="4" fill="#FFFFFF1B"/>
  <rect x="246" y="576" width="488" height="100" rx="14" fill="#FFFFFF0E"/>
  <rect x="246" y="696" width="226" height="112" rx="14" fill="#FFFFFF0D"/>
  <rect x="508" y="696" width="226" height="112" rx="14" fill="url(#brandW)" opacity="0.2"/>

  <rect x="800" y="478" width="590" height="360" rx="20" fill="#121A2F"/>
  <rect x="836" y="514" width="230" height="10" rx="5" fill="#FFFFFF2A"/>
  <rect x="836" y="542" width="180" height="8" rx="4" fill="#FFFFFF1B"/>
  <rect x="836" y="576" width="524" height="232" rx="14" fill="#FFFFFF0F"/>
  <circle cx="980" cy="692" r="78" fill="none" stroke="#FFFFFF20" stroke-width="24"/>
  <path d="M980 614 A78 78 0 0 1 1046 734" fill="none" stroke="url(#brandW)" stroke-width="24"/>
  <rect x="1088" y="624" width="240" height="20" rx="10" fill="#FFFFFF1C"/>
  <rect x="1088" y="656" width="196" height="14" rx="7" fill="#FFFFFF16"/>
  <rect x="1088" y="682" width="220" height="14" rx="7" fill="#FFFFFF16"/>
</svg>
