<svg xmlns="http://www.w3.org/2000/svg" viewBox="0 0 64 64" role="img" aria-label="Sovertick favicon">
  <defs>
    <linearGradient id="sovertick-grad" x1="8" y1="8" x2="56" y2="56" gradientUnits="userSpaceOnUse">
      <stop offset="0" stop-color="#B06EFF"/>
      <stop offset="1" stop-color="#FF6B6B"/>
    </linearGradient>
  </defs>
  <rect width="64" height="64" rx="14" fill="#0B0D17"/>
  <path d="M18 22C18 17 22 14 29 14c5 0 9 2 12 5l-4 4c-2-2-4-3-8-3-3 0-5 1-5 3 0 2 1 3 5 4l6 2c6 2 9 5 9 10 0 7-6 11-15 11-7 0-12-3-16-8l5-4c3 4 6 6 11 6 4 0 7-2 7-4 0-2-1-3-5-4l-6-2c-7-2-10-6-10-10Z" fill="url(#sovertick-grad)"/>
  <path d="M20 36l8 8 16-16" fill="none" stroke="#FFD93D" stroke-width="4" stroke-linecap="round" stroke-linejoin="round"/>
</svg>